<?xml version="1.0" encoding="us-ascii" standalone="no"?><svg xmlns="http://www.w3.org/2000/svg" xmlns:xlink="http://www.w3.org/1999/xlink" contentStyleType="text/css" height="489px" preserveAspectRatio="none" style="width:226px;height:489px;background:#FFFFFF;" version="1.1" viewBox="0 0 226 489" width="226px" zoomAndPan="magnify"><defs/><g><!--class User--><g id="elem_User"><rect codeLine="2" fill="#F1F1F1" height="123.7813" id="User" rx="2.5" ry="2.5" style="stroke:#181818;stroke-width:0.5;" width="184" x="22" y="7"/><ellipse cx="88.75" cy="28.2969" fill="#ADD1B2" rx="11" ry="11" style="stroke:#181818;stroke-width:1.0;"/><path d="M92.8594,34.2969 L85.1406,34.2969 L85.1406,21.9063 L92.8594,21.9063 L92.8594,24.0625 L87.5938,24.0625 L87.5938,26.7344 L92.3594,26.7344 L92.3594,28.8906 L87.5938,28.8906 L87.5938,32.1406 L92.8594,32.1406 L92.8594,34.2969 Z " fill="#000000"/><text fill="#000000" font-family="sans-serif" font-size="14" lengthAdjust="spacing" textLength="39" x="110.75" y="24.9951">users</text><text fill="#000000" font-family="sans-serif" font-size="14" lengthAdjust="spacing" textLength="42" x="109.25" y="41.292">&#12518;&#12540;&#12470;</text><line style="stroke:#181818;stroke-width:0.5;" x1="23" x2="205" y1="49.5938" y2="49.5938"/><ellipse cx="33" cy="63.2422" fill="none" rx="3" ry="3" style="stroke:#038048;stroke-width:1.0;"/><text fill="#000000" font-family="sans-serif" font-size="14" lengthAdjust="spacing" textLength="97" x="42" y="66.5889">id [PK] : String</text><line style="stroke:#181818;stroke-width:1.0;" x1="23" x2="205" y1="73.8906" y2="73.8906"/><polygon fill="none" points="33,82.5391,37,86.5391,33,90.5391,29,86.5391" style="stroke:#B38D22;stroke-width:1.0;"/><text fill="#000000" font-family="sans-serif" font-size="14" lengthAdjust="spacing" textLength="130" x="42" y="90.8857">teamId : [FK] Team</text><ellipse cx="33" cy="103.8359" fill="#000000" rx="3" ry="3" style="stroke:#000000;stroke-width:1.0;"/><text fill="#000000" font-family="sans-serif" font-size="14" lengthAdjust="spacing" textLength="153" x="42" y="107.1826">created_at : DateTime</text><ellipse cx="33" cy="120.1328" fill="#000000" rx="3" ry="3" style="stroke:#000000;stroke-width:1.0;"/><text fill="#000000" font-family="sans-serif" font-size="14" lengthAdjust="spacing" textLength="158" x="42" y="123.4795">updated_at : DateTime</text></g><!--class Team--><g id="elem_Team"><rect codeLine="10" fill="#F1F1F1" height="123.7813" id="Team" rx="2.5" ry="2.5" style="stroke:#181818;stroke-width:0.5;" width="210" x="9" y="190.78"/><ellipse cx="88.25" cy="212.0769" fill="#ADD1B2" rx="11" ry="11" style="stroke:#181818;stroke-width:1.0;"/><path d="M92.3594,218.0769 L84.6406,218.0769 L84.6406,205.6863 L92.3594,205.6863 L92.3594,207.8425 L87.0938,207.8425 L87.0938,210.5144 L91.8594,210.5144 L91.8594,212.6706 L87.0938,212.6706 L87.0938,215.9206 L92.3594,215.9206 L92.3594,218.0769 Z " fill="#000000"/><text fill="#000000" font-family="sans-serif" font-size="14" lengthAdjust="spacing" textLength="43" x="108.75" y="208.7751">teams</text><text fill="#000000" font-family="sans-serif" font-size="14" lengthAdjust="spacing" textLength="42" x="109.25" y="225.072">&#12481;&#12540;&#12512;</text><line style="stroke:#181818;stroke-width:0.5;" x1="10" x2="218" y1="233.3738" y2="233.3738"/><ellipse cx="20" cy="247.0222" fill="none" rx="3" ry="3" style="stroke:#038048;stroke-width:1.0;"/><text fill="#000000" font-family="sans-serif" font-size="14" lengthAdjust="spacing" textLength="97" x="29" y="250.3689">id [PK] : String</text><line style="stroke:#181818;stroke-width:1.0;" x1="10" x2="218" y1="257.6706" y2="257.6706"/><polygon fill="none" points="20,266.3191,24,270.3191,20,274.3191,16,270.3191" style="stroke:#B38D22;stroke-width:1.0;"/><text fill="#000000" font-family="sans-serif" font-size="14" lengthAdjust="spacing" textLength="184" x="29" y="274.6657">companyId : [FK] Company</text><ellipse cx="20" cy="287.6159" fill="#000000" rx="3" ry="3" style="stroke:#000000;stroke-width:1.0;"/><text fill="#000000" font-family="sans-serif" font-size="14" lengthAdjust="spacing" textLength="153" x="29" y="290.9626">created_at : DateTime</text><ellipse cx="20" cy="303.9128" fill="#000000" rx="3" ry="3" style="stroke:#000000;stroke-width:1.0;"/><text fill="#000000" font-family="sans-serif" font-size="14" lengthAdjust="spacing" textLength="158" x="29" y="307.2595">updated_at : DateTime</text></g><!--class Company--><g id="elem_Company"><rect codeLine="18" fill="#F1F1F1" height="107.4844" id="Company" rx="2.5" ry="2.5" style="stroke:#181818;stroke-width:0.5;" width="184" x="22" y="374.57"/><ellipse cx="71.75" cy="395.8669" fill="#ADD1B2" rx="11" ry="11" style="stroke:#181818;stroke-width:1.0;"/><path d="M75.8594,401.8669 L68.1406,401.8669 L68.1406,389.4763 L75.8594,389.4763 L75.8594,391.6325 L70.5938,391.6325 L70.5938,394.3044 L75.3594,394.3044 L75.3594,396.4606 L70.5938,396.4606 L70.5938,399.7106 L75.8594,399.7106 L75.8594,401.8669 Z " fill="#000000"/><text fill="#000000" font-family="sans-serif" font-size="14" lengthAdjust="spacing" textLength="76" x="92.25" y="392.5651">companies</text><text fill="#000000" font-family="sans-serif" font-size="14" lengthAdjust="spacing" textLength="28" x="116.25" y="408.862">&#20225;&#26989;</text><line style="stroke:#181818;stroke-width:0.5;" x1="23" x2="205" y1="417.1638" y2="417.1638"/><ellipse cx="33" cy="430.8122" fill="none" rx="3" ry="3" style="stroke:#038048;stroke-width:1.0;"/><text fill="#000000" font-family="sans-serif" font-size="14" lengthAdjust="spacing" textLength="97" x="42" y="434.1589">id [PK] : String</text><line style="stroke:#181818;stroke-width:1.0;" x1="23" x2="205" y1="441.4606" y2="441.4606"/><ellipse cx="33" cy="455.1091" fill="#000000" rx="3" ry="3" style="stroke:#000000;stroke-width:1.0;"/><text fill="#000000" font-family="sans-serif" font-size="14" lengthAdjust="spacing" textLength="153" x="42" y="458.4557">created_at : DateTime</text><ellipse cx="33" cy="471.4059" fill="#000000" rx="3" ry="3" style="stroke:#000000;stroke-width:1.0;"/><text fill="#000000" font-family="sans-serif" font-size="14" lengthAdjust="spacing" textLength="158" x="42" y="474.7526">updated_at : DateTime</text></g><!--link User to Team--><g id="link_User_Team"><path codeLine="26" d="M114,149.11 C114,168.27 114,156.36 114,175.52 " fill="none" id="User-Team" style="stroke:#181818;stroke-width:1.0;"/><line style="stroke:#181818;stroke-width:1.0;" x1="114" x2="108" y1="139.11" y2="131.11"/><line style="stroke:#181818;stroke-width:1.0;" x1="114" x2="120" y1="139.11" y2="131.11"/><line style="stroke:#181818;stroke-width:1.0;" x1="114" x2="114" y1="139.11" y2="131.11"/><ellipse cx="114" cy="145.11" fill="none" rx="4" ry="4" style="stroke:#181818;stroke-width:1.0;"/><line style="stroke:#181818;stroke-width:1.0;" x1="114" x2="114" y1="179.52" y2="190.52"/><ellipse cx="114" cy="179.52" fill="none" rx="4" ry="4" style="stroke:#181818;stroke-width:1.0;"/><line style="stroke:#181818;stroke-width:1.0;" x1="118" x2="110" y1="186.52" y2="186.52"/></g><!--link Team to Company--><g id="link_Team_Company"><path codeLine="27" d="M114,332.6 C114,352.05 114,340.37 114,359.24 " fill="none" id="Team-Company" style="stroke:#181818;stroke-width:1.0;"/><line style="stroke:#181818;stroke-width:1.0;" x1="114" x2="108" y1="322.6" y2="314.6"/><line style="stroke:#181818;stroke-width:1.0;" x1="114" x2="120" y1="322.6" y2="314.6"/><line style="stroke:#181818;stroke-width:1.0;" x1="114" x2="114" y1="322.6" y2="314.6"/><ellipse cx="114" cy="328.6" fill="none" rx="4" ry="4" style="stroke:#181818;stroke-width:1.0;"/><line style="stroke:#181818;stroke-width:1.0;" x1="114" x2="114" y1="363.24" y2="374.24"/><ellipse cx="114" cy="363.24" fill="none" rx="4" ry="4" style="stroke:#181818;stroke-width:1.0;"/><line style="stroke:#181818;stroke-width:1.0;" x1="118" x2="110" y1="370.24" y2="370.24"/></g><!--SRC=[fP2zJiCm58LtFyLH6IA1yWAi82I4a509Kq78Qgx0Qcr7ziqGGOUI5s61ZPMfRnF4St3ZjC20Ej35F-V8vtu-SMPSfOEsc1j7t5G47_ZUAt9ikC6eZXJYjUlQrwvTTK_l8-Y8An7ne0vWIamkpcvmY4iEnjsfF5V07fYqFIr5dfo8MyXDv7rC0sccybQpMCToB8obvDHL-OUpKDySVMBYMFOSxNFYw8EtSaozhRHhVb2E1c5NcY7Na11zh9QVBsy9Pns-XUXVGpECQQxPU1TLQdxXyzm_3hMc2jR2vdCPpcKhVB_-Ufk1N6qHDi8N]--></g></svg>