<?xml version="1.0" encoding="us-ascii" standalone="no"?><svg xmlns="http://www.w3.org/2000/svg" xmlns:xlink="http://www.w3.org/1999/xlink" contentStyleType="text/css" height="305px" preserveAspectRatio="none" style="width:200px;height:305px;background:#FFFFFF;" version="1.1" viewBox="0 0 200 305" width="200px" zoomAndPan="magnify"><defs/><g><!--class User--><g id="elem_User"><rect codeLine="2" fill="#F1F1F1" height="123.7813" id="User" rx="2.5" ry="2.5" style="stroke:#181818;stroke-width:0.5;" width="184" x="9" y="7"/><ellipse cx="75.75" cy="28.2969" fill="#ADD1B2" rx="11" ry="11" style="stroke:#181818;stroke-width:1.0;"/><path d="M79.8594,34.2969 L72.1406,34.2969 L72.1406,21.9063 L79.8594,21.9063 L79.8594,24.0625 L74.5938,24.0625 L74.5938,26.7344 L79.3594,26.7344 L79.3594,28.8906 L74.5938,28.8906 L74.5938,32.1406 L79.8594,32.1406 L79.8594,34.2969 Z " fill="#000000"/><text fill="#000000" font-family="sans-serif" font-size="14" lengthAdjust="spacing" textLength="39" x="97.75" y="24.9951">users</text><text fill="#000000" font-family="sans-serif" font-size="14" lengthAdjust="spacing" textLength="42" x="96.25" y="41.292">&#12518;&#12540;&#12470;</text><line style="stroke:#181818;stroke-width:0.5;" x1="10" x2="192" y1="49.5938" y2="49.5938"/><ellipse cx="20" cy="63.2422" fill="none" rx="3" ry="3" style="stroke:#038048;stroke-width:1.0;"/><text fill="#000000" font-family="sans-serif" font-size="14" lengthAdjust="spacing" textLength="97" x="29" y="66.5889">id [PK] : String</text><line style="stroke:#181818;stroke-width:1.0;" x1="10" x2="192" y1="73.8906" y2="73.8906"/><polygon fill="none" points="20,82.5391,24,86.5391,20,90.5391,16,86.5391" style="stroke:#B38D22;stroke-width:1.0;"/><text fill="#000000" font-family="sans-serif" font-size="14" lengthAdjust="spacing" textLength="130" x="29" y="90.8857">teamId : [FK] Team</text><ellipse cx="20" cy="103.8359" fill="#000000" rx="3" ry="3" style="stroke:#000000;stroke-width:1.0;"/><text fill="#000000" font-family="sans-serif" font-size="14" lengthAdjust="spacing" textLength="153" x="29" y="107.1826">created_at : DateTime</text><ellipse cx="20" cy="120.1328" fill="#000000" rx="3" ry="3" style="stroke:#000000;stroke-width:1.0;"/><text fill="#000000" font-family="sans-serif" font-size="14" lengthAdjust="spacing" textLength="158" x="29" y="123.4795">updated_at : DateTime</text></g><!--class Team--><g id="elem_Team"><rect codeLine="10" fill="#F1F1F1" height="107.4844" id="Team" rx="2.5" ry="2.5" style="stroke:#181818;stroke-width:0.5;" width="184" x="9" y="190.79"/><ellipse cx="75.25" cy="212.0869" fill="#ADD1B2" rx="11" ry="11" style="stroke:#181818;stroke-width:1.0;"/><path d="M79.3594,218.0869 L71.6406,218.0869 L71.6406,205.6962 L79.3594,205.6962 L79.3594,207.8525 L74.0938,207.8525 L74.0938,210.5244 L78.8594,210.5244 L78.8594,212.6806 L74.0938,212.6806 L74.0938,215.9306 L79.3594,215.9306 L79.3594,218.0869 Z " fill="#000000"/><text fill="#000000" font-family="sans-serif" font-size="14" lengthAdjust="spacing" textLength="43" x="95.75" y="208.7851">teams</text><text fill="#000000" font-family="sans-serif" font-size="14" lengthAdjust="spacing" textLength="42" x="96.25" y="225.082">&#12481;&#12540;&#12512;</text><line style="stroke:#181818;stroke-width:0.5;" x1="10" x2="192" y1="233.3837" y2="233.3837"/><ellipse cx="20" cy="247.0322" fill="none" rx="3" ry="3" style="stroke:#038048;stroke-width:1.0;"/><text fill="#000000" font-family="sans-serif" font-size="14" lengthAdjust="spacing" textLength="97" x="29" y="250.3789">id [PK] : String</text><line style="stroke:#181818;stroke-width:1.0;" x1="10" x2="192" y1="257.6806" y2="257.6806"/><ellipse cx="20" cy="271.3291" fill="#000000" rx="3" ry="3" style="stroke:#000000;stroke-width:1.0;"/><text fill="#000000" font-family="sans-serif" font-size="14" lengthAdjust="spacing" textLength="153" x="29" y="274.6757">created_at : DateTime</text><ellipse cx="20" cy="287.6259" fill="#000000" rx="3" ry="3" style="stroke:#000000;stroke-width:1.0;"/><text fill="#000000" font-family="sans-serif" font-size="14" lengthAdjust="spacing" textLength="158" x="29" y="290.9726">updated_at : DateTime</text></g><!--link User to Team--><g id="link_User_Team"><path codeLine="18" d="M101,148.82 C101,168.27 101,156.59 101,175.46 " fill="none" id="User-Team" style="stroke:#181818;stroke-width:1.0;"/><line style="stroke:#181818;stroke-width:1.0;" x1="101" x2="95" y1="138.82" y2="130.82"/><line style="stroke:#181818;stroke-width:1.0;" x1="101" x2="107" y1="138.82" y2="130.82"/><line style="stroke:#181818;stroke-width:1.0;" x1="101" x2="101" y1="138.82" y2="130.82"/><ellipse cx="101" cy="144.82" fill="none" rx="4" ry="4" style="stroke:#181818;stroke-width:1.0;"/><line style="stroke:#181818;stroke-width:1.0;" x1="101" x2="101" y1="179.46" y2="190.46"/><ellipse cx="101" cy="179.46" fill="none" rx="4" ry="4" style="stroke:#181818;stroke-width:1.0;"/><line style="stroke:#181818;stroke-width:1.0;" x1="105" x2="97" y1="186.46" y2="186.46"/></g><!--SRC=[dOyn2i9044NxFSL7Yu2I2rYB82A8naf55ZFeejaDkvCYg8Nc8bOUmShRv29k8eg5MDWCC_yFC- -xhTAfj3B1JcdYF2KOoniZIBFY78tCaNLpNHRNihYNvri3qc7gHUn56oh6R3HOe8C9MwNN8Wm5q0IJJFgnbsSzxqP-yd8BAqkIALvAzbRNjv5Ag7QoDFxY7CMRexfOSvmgZk9ISrI7Vt3yzJ30c7QIbT5Er3cF9WpDuHaYm53gF39L_TWBG3fBO5_20m00]--></g></svg>